# xmcd
#
# Track frame offsets:
#	150
#	14162
#	25137
#	39265
#	52240
#	67297
#	84752
#	95510
#	107675
#	119392
#	135675
#	149235
#
# Disc length: 2218 seconds
#
# Revision: 4
# Processed by: cddbd v1.5.2PL0 Copyright (c) Steve Scherf et al.
# Submitted via: audiograbber 1.83.01
#
DISCID=b108a80c
DTITLE=Canyon - Sehnsucht
DYEAR=1993
DGENRE=Country
TTITLE0=Hey Mister Sonntag-Radio
TTITLE1=Cowboy für eine Nacht
TTITLE2=Du bist mein bester Freund
TTITLE3=Der Teufel schläft nicht
TTITLE4=Mädchen aus meinen Träumen
TTITLE5=Mach mal Pause
TTITLE6=Good Old Germany
TTITLE7=Verlorene Zeit
TTITLE8=Trucker, Asphalt Cowboy
TTITLE9=Kleine Jungs werden groß
TTITLE10=Supertrip
TTITLE11=Sehnsucht nach Westen
EXTD=
EXTT0=
EXTT1=
EXTT2=
EXTT3=
EXTT4=
EXTT5=
EXTT6=
EXTT7=
EXTT8=
EXTT9=
EXTT10=
EXTT11=
PLAYORDER=
